<svg width="104" height="25" viewBox="0 0 104 25" fill="none" xmlns="http://www.w3.org/2000/svg">
<path d="M30.1361 9.61273C30.6161 9.61273 31.0241 9.68073 31.3601 9.81673C31.6961 9.95273 32.0241 10.1447 32.3441 10.3927C32.4321 10.4647 32.5081 10.5007 32.5721 10.5007C32.7321 10.5007 32.8361 10.2607 32.8841 9.78073H33.1601C33.1281 10.3007 33.1121 11.2207 33.1121 12.5407H32.8361C32.7481 12.0207 32.6681 11.6487 32.5961 11.4247C32.5241 11.1927 32.4041 10.9727 32.2361 10.7647C31.9961 10.4527 31.6881 10.2207 31.3121 10.0687C30.9441 9.90873 30.5441 9.82873 30.1121 9.82873C29.5921 9.82873 29.1361 10.0007 28.7441 10.3447C28.3601 10.6887 28.0601 11.1807 27.8441 11.8207C27.6281 12.4527 27.5201 13.1967 27.5201 14.0527C27.5201 14.9247 27.6361 15.6727 27.8681 16.2967C28.1001 16.9207 28.4201 17.3967 28.8281 17.7247C29.2441 18.0447 29.7121 18.2047 30.2321 18.2047C30.6321 18.2047 31.0201 18.1287 31.3961 17.9767C31.7721 17.8247 32.0681 17.5967 32.2841 17.2927C32.4441 17.0687 32.5601 16.8287 32.6321 16.5727C32.7041 16.3167 32.7721 15.9247 32.8361 15.3967H33.1121C33.1121 16.7727 33.1281 17.7327 33.1601 18.2767H32.8841C32.8601 18.0207 32.8241 17.8407 32.7761 17.7367C32.7361 17.6247 32.6761 17.5687 32.5961 17.5687C32.5321 17.5687 32.4481 17.6007 32.3441 17.6647C31.9841 17.9207 31.6401 18.1167 31.3121 18.2527C30.9841 18.3807 30.5881 18.4447 30.1241 18.4447C29.3641 18.4447 28.6961 18.2727 28.1201 17.9287C27.5521 17.5847 27.1081 17.0887 26.7881 16.4407C26.4761 15.7847 26.3201 15.0047 26.3201 14.1007C26.3201 13.2207 26.4801 12.4407 26.8001 11.7607C27.1281 11.0807 27.5801 10.5527 28.1561 10.1767C28.7401 9.80073 29.4001 9.61273 30.1361 9.61273ZM40.0778 9.61273C40.8378 9.61273 41.5018 9.78473 42.0698 10.1287C42.6458 10.4727 43.0898 10.9727 43.4018 11.6287C43.7218 12.2767 43.8818 13.0527 43.8818 13.9567C43.8818 14.8367 43.7178 15.6167 43.3898 16.2967C43.0698 16.9767 42.6178 17.5047 42.0338 17.8807C41.4578 18.2567 40.8018 18.4447 40.0658 18.4447C39.3058 18.4447 38.6378 18.2727 38.0618 17.9287C37.4938 17.5847 37.0498 17.0887 36.7298 16.4407C36.4178 15.7847 36.2618 15.0047 36.2618 14.1007C36.2618 13.2207 36.4218 12.4407 36.7418 11.7607C37.0698 11.0807 37.5218 10.5527 38.0978 10.1767C38.6818 9.80073 39.3418 9.61273 40.0778 9.61273ZM40.0298 9.82873C39.5178 9.82873 39.0658 10.0087 38.6738 10.3687C38.2898 10.7207 37.9898 11.2167 37.7738 11.8567C37.5658 12.4967 37.4618 13.2287 37.4618 14.0527C37.4618 14.8847 37.5778 15.6167 37.8098 16.2487C38.0498 16.8807 38.3698 17.3687 38.7698 17.7127C39.1698 18.0567 39.6178 18.2287 40.1138 18.2287C40.6258 18.2287 41.0738 18.0527 41.4578 17.7007C41.8498 17.3407 42.1498 16.8407 42.3578 16.2007C42.5738 15.5607 42.6818 14.8287 42.6818 14.0047C42.6818 13.1727 42.5618 12.4407 42.3218 11.8087C42.0898 11.1767 41.7738 10.6887 41.3738 10.3447C40.9738 10.0007 40.5258 9.82873 40.0298 9.82873ZM54.1466 10.0207C53.8666 10.0367 53.6586 10.0807 53.5226 10.1527C53.3866 10.2167 53.2946 10.3287 53.2466 10.4887C53.1986 10.6407 53.1746 10.8687 53.1746 11.1727V18.3367H52.8986L47.8586 10.5487V16.8847C47.8586 17.1967 47.8826 17.4287 47.9306 17.5807C47.9866 17.7327 48.0906 17.8447 48.2426 17.9167C48.3946 17.9807 48.6306 18.0207 48.9506 18.0367V18.2767C48.6626 18.2527 48.2546 18.2407 47.7266 18.2407C47.2466 18.2407 46.8746 18.2527 46.6106 18.2767V18.0367C46.8906 18.0207 47.0986 17.9807 47.2346 17.9167C47.3706 17.8447 47.4626 17.7327 47.5106 17.5807C47.5586 17.4207 47.5826 17.1887 47.5826 16.8847V11.0527C47.5826 10.7487 47.5586 10.5287 47.5106 10.3927C47.4626 10.2567 47.3706 10.1647 47.2346 10.1167C47.1066 10.0687 46.8986 10.0367 46.6106 10.0207V9.78073C46.8746 9.80473 47.2466 9.81673 47.7266 9.81673C48.0866 9.81673 48.3986 9.80473 48.6626 9.78073L52.8986 16.3087V11.1727C52.8986 10.8607 52.8706 10.6287 52.8146 10.4767C52.7666 10.3247 52.6666 10.2167 52.5146 10.1527C52.3626 10.0807 52.1266 10.0367 51.8066 10.0207V9.78073C52.0946 9.80473 52.5026 9.81673 53.0306 9.81673C53.5106 9.81673 53.8826 9.80473 54.1466 9.78073V10.0207ZM65.3332 18.6247C65.1572 19.2327 64.9052 19.6887 64.5772 19.9927C64.1852 20.3527 63.6452 20.5327 62.9572 20.5327C62.5892 20.5327 62.2292 20.4767 61.8772 20.3647C61.5252 20.2527 61.0812 20.0767 60.5452 19.8367C59.9532 19.5807 59.4692 19.3887 59.0932 19.2607L58.8052 19.1767C58.4612 19.2967 58.1292 19.3567 57.8092 19.3567C57.4412 19.3567 57.2572 19.2767 57.2572 19.1167C57.2572 18.9487 57.4732 18.8647 57.9052 18.8647C58.1852 18.8647 58.4852 18.8967 58.8052 18.9607C59.0612 18.8887 59.3572 18.7767 59.6932 18.6247C59.9012 18.5287 60.0572 18.4607 60.1612 18.4207C59.4812 18.3567 58.8892 18.1447 58.3852 17.7847C57.8892 17.4247 57.5012 16.9327 57.2212 16.3087C56.9492 15.6767 56.8132 14.9407 56.8132 14.1007C56.8132 13.2207 56.9732 12.4407 57.2932 11.7607C57.6212 11.0807 58.0732 10.5527 58.6492 10.1767C59.2332 9.80073 59.8932 9.61273 60.6292 9.61273C61.3892 9.61273 62.0532 9.78473 62.6212 10.1287C63.1972 10.4727 63.6412 10.9727 63.9532 11.6287C64.2732 12.2767 64.4332 13.0527 64.4332 13.9567C64.4332 14.7887 64.2892 15.5327 64.0012 16.1887C63.7132 16.8367 63.3092 17.3567 62.7892 17.7487C62.2692 18.1327 61.6732 18.3567 61.0012 18.4207V18.4327C60.8092 18.4567 60.6412 18.4887 60.4972 18.5287C60.3612 18.5767 60.1772 18.6487 59.9452 18.7447C59.6572 18.8727 59.4172 18.9647 59.2252 19.0207C60.1132 19.1967 60.8652 19.3367 61.4812 19.4407C62.1052 19.5447 62.6212 19.5967 63.0292 19.5967C63.5972 19.5967 64.0452 19.5127 64.3732 19.3447C64.7092 19.1847 64.9692 18.9207 65.1532 18.5527L65.3332 18.6247ZM58.0132 14.0527C58.0132 14.8847 58.1292 15.6167 58.3612 16.2487C58.6012 16.8807 58.9212 17.3687 59.3212 17.7127C59.7212 18.0567 60.1692 18.2287 60.6652 18.2287C61.1772 18.2287 61.6252 18.0527 62.0092 17.7007C62.4012 17.3407 62.7012 16.8407 62.9092 16.2007C63.1252 15.5607 63.2332 14.8287 63.2332 14.0047C63.2332 13.1727 63.1132 12.4407 62.8732 11.8087C62.6412 11.1767 62.3252 10.6887 61.9252 10.3447C61.5252 10.0007 61.0772 9.82873 60.5812 9.82873C60.0692 9.82873 59.6172 10.0087 59.2252 10.3687C58.8412 10.7207 58.5412 11.2167 58.3252 11.8567C58.1172 12.4967 58.0132 13.2287 58.0132 14.0527ZM74.5414 10.0207C74.2614 10.0367 74.0534 10.0807 73.9174 10.1527C73.7814 10.2167 73.6894 10.3287 73.6414 10.4887C73.5934 10.6407 73.5694 10.8687 73.5694 11.1727V14.7847C73.5694 15.3607 73.5294 15.8567 73.4494 16.2727C73.3774 16.6807 73.2534 17.0327 73.0774 17.3287C72.8774 17.6727 72.5814 17.9447 72.1894 18.1447C71.8054 18.3447 71.3694 18.4447 70.8814 18.4447C70.0014 18.4447 69.3294 18.2287 68.8654 17.7967C68.5134 17.4687 68.2774 17.0967 68.1574 16.6807C68.0374 16.2647 67.9774 15.6447 67.9774 14.8207V11.0527C67.9774 10.7487 67.9534 10.5287 67.9054 10.3927C67.8574 10.2567 67.7654 10.1647 67.6294 10.1167C67.5014 10.0687 67.2934 10.0367 67.0054 10.0207V9.78073C67.3414 9.80473 67.8534 9.81673 68.5414 9.81673C69.1894 9.81673 69.6974 9.80473 70.0654 9.78073V10.0207C69.7774 10.0367 69.5654 10.0687 69.4294 10.1167C69.3014 10.1647 69.2134 10.2567 69.1654 10.3927C69.1174 10.5287 69.0934 10.7487 69.0934 11.0527V15.0247C69.0934 15.6647 69.1374 16.1967 69.2254 16.6207C69.3134 17.0447 69.4934 17.3847 69.7654 17.6407C70.0454 17.8967 70.4534 18.0247 70.9894 18.0247C71.8374 18.0247 72.4334 17.7527 72.7774 17.2087C73.1214 16.6647 73.2934 15.9007 73.2934 14.9167V11.1727C73.2934 10.7407 73.2134 10.4447 73.0534 10.2847C72.9014 10.1247 72.6174 10.0367 72.2014 10.0207V9.78073C72.4894 9.80473 72.8974 9.81673 73.4254 9.81673C73.9054 9.81673 74.2774 9.80473 74.5414 9.78073V10.0207ZM83.1891 16.7407C83.1891 17.1967 83.2171 17.7087 83.2731 18.2767C82.7291 18.2527 81.8131 18.2407 80.5251 18.2407C78.9891 18.2407 77.8291 18.2527 77.0451 18.2767V18.0367C77.3331 18.0207 77.5411 17.9887 77.6691 17.9407C77.8051 17.8927 77.8971 17.8007 77.9451 17.6647C77.9931 17.5287 78.0171 17.3087 78.0171 17.0047V11.0527C78.0171 10.7487 77.9931 10.5287 77.9451 10.3927C77.8971 10.2567 77.8051 10.1647 77.6691 10.1167C77.5411 10.0687 77.3331 10.0367 77.0451 10.0207V9.78073C77.8291 9.80473 78.9891 9.81673 80.5251 9.81673C81.7011 9.81673 82.5371 9.80473 83.0331 9.78073C82.9771 10.3087 82.9491 10.7807 82.9491 11.1967C82.9491 11.5087 82.9611 11.7567 82.9851 11.9407H82.7091C82.6531 11.4207 82.5811 11.0367 82.4931 10.7887C82.4051 10.5327 82.2571 10.3487 82.0491 10.2367C81.8411 10.1167 81.5251 10.0567 81.1011 10.0567H80.1051C79.8171 10.0567 79.6051 10.0807 79.4691 10.1287C79.3411 10.1687 79.2531 10.2567 79.2051 10.3927C79.1571 10.5287 79.1331 10.7487 79.1331 11.0527V13.8847H79.9251C80.2051 13.8847 80.4211 13.8207 80.5731 13.6927C80.7251 13.5567 80.8251 13.4007 80.8731 13.2247C80.9291 13.0407 80.9731 12.8127 81.0051 12.5407L81.0411 12.3007H81.3171C81.2931 12.6367 81.2811 13.0127 81.2811 13.4287V14.0047C81.2811 14.4127 81.3051 14.9807 81.3531 15.7087H81.0771C81.0691 15.6527 81.0451 15.4607 81.0051 15.1327C80.9651 14.7967 80.8531 14.5447 80.6691 14.3767C80.4931 14.2087 80.2451 14.1247 79.9251 14.1247H79.1331V17.0047C79.1331 17.3087 79.1571 17.5287 79.2051 17.6647C79.2531 17.8007 79.3411 17.8927 79.4691 17.9407C79.6051 17.9807 79.8171 18.0007 80.1051 18.0007H80.9811C81.4771 18.0007 81.8531 17.9367 82.1091 17.8087C82.3731 17.6727 82.5651 17.4607 82.6851 17.1727C82.8051 16.8767 82.8931 16.4447 82.9491 15.8767H83.2251C83.2011 16.0927 83.1891 16.3807 83.1891 16.7407ZM88.6056 9.64873C88.9576 9.64873 89.2336 9.68873 89.4336 9.76873C89.6416 9.84073 89.8536 9.94873 90.0696 10.0927C90.2456 10.2047 90.3816 10.2607 90.4776 10.2607C90.5496 10.2607 90.6056 10.2207 90.6456 10.1407C90.6856 10.0527 90.7176 9.91673 90.7416 9.73273H91.0176C90.9776 10.1967 90.9576 11.0127 90.9576 12.1807H90.6816C90.6336 11.5327 90.4456 10.9887 90.1176 10.5487C89.7976 10.1007 89.3296 9.87673 88.7136 9.87673C88.2816 9.87673 87.9296 10.0087 87.6576 10.2727C87.3856 10.5287 87.2496 10.8607 87.2496 11.2687C87.2496 11.5727 87.3176 11.8367 87.4536 12.0607C87.5976 12.2847 87.7776 12.4767 87.9936 12.6367C88.2096 12.7967 88.5176 13.0007 88.9176 13.2487L89.2656 13.4647C89.7696 13.7767 90.1656 14.0527 90.4536 14.2927C90.7496 14.5247 90.9856 14.7927 91.1616 15.0967C91.3376 15.4007 91.4256 15.7567 91.4256 16.1647C91.4256 16.8927 91.1856 17.4567 90.7056 17.8567C90.2256 18.2487 89.6176 18.4447 88.8816 18.4447C88.4976 18.4447 88.1816 18.4047 87.9336 18.3247C87.6936 18.2447 87.4616 18.1367 87.2376 18.0007C87.0616 17.8887 86.9256 17.8327 86.8296 17.8327C86.7576 17.8327 86.7016 17.8767 86.6616 17.9647C86.6216 18.0447 86.5896 18.1767 86.5656 18.3607H86.2896C86.3216 17.9207 86.3376 16.9607 86.3376 15.4807H86.6136C86.6696 16.2887 86.8696 16.9447 87.2136 17.4487C87.5576 17.9527 88.0856 18.2047 88.7976 18.2047C89.2296 18.2047 89.5976 18.0727 89.9016 17.8087C90.2056 17.5367 90.3576 17.1367 90.3576 16.6087C90.3576 16.1607 90.2056 15.7807 89.9016 15.4687C89.6056 15.1567 89.1336 14.8047 88.4856 14.4127C88.0136 14.1247 87.6296 13.8687 87.3336 13.6447C87.0456 13.4207 86.8096 13.1527 86.6256 12.8407C86.4416 12.5207 86.3496 12.1487 86.3496 11.7247C86.3496 11.0527 86.5656 10.5407 86.9976 10.1887C87.4296 9.82873 87.9656 9.64873 88.6056 9.64873ZM100.798 9.78073C100.742 10.3487 100.714 10.8607 100.714 11.3167C100.714 11.7167 100.726 12.0447 100.75 12.3007H100.474C100.41 11.6847 100.33 11.2287 100.234 10.9327C100.138 10.6287 99.9701 10.4087 99.7301 10.2727C99.4901 10.1287 99.1221 10.0567 98.6261 10.0567H97.9781V16.8847C97.9781 17.2207 98.0101 17.4647 98.0741 17.6167C98.1381 17.7687 98.2501 17.8727 98.4101 17.9287C98.5701 17.9847 98.8301 18.0207 99.1901 18.0367V18.2767C98.7741 18.2527 98.1861 18.2407 97.4261 18.2407C96.6261 18.2407 96.0341 18.2527 95.6501 18.2767V18.0367C96.0101 18.0207 96.2701 17.9847 96.4301 17.9287C96.5901 17.8727 96.7021 17.7687 96.7661 17.6167C96.8301 17.4647 96.8621 17.2207 96.8621 16.8847V10.0567H96.2141C95.7181 10.0567 95.3501 10.1287 95.1101 10.2727C94.8701 10.4087 94.7021 10.6287 94.6061 10.9327C94.5101 11.2287 94.4301 11.6847 94.3661 12.3007H94.0901C94.1141 12.0447 94.1261 11.7167 94.1261 11.3167C94.1261 10.8607 94.0981 10.3487 94.0421 9.78073C94.7061 9.80473 95.8341 9.81673 97.4261 9.81673C99.0101 9.81673 100.134 9.80473 100.798 9.78073Z" fill="#555248"/>
<path d="M21.6665 14.6819C21.0897 16.3297 19.8021 18.3803 17.2713 19.597C15.7182 20.3436 14.0347 20.6448 12.4019 20.5522L12.4442 4.3618C12.4988 4.35774 12.5535 4.35406 12.6085 4.35078C13.0941 4.3476 13.6924 4.367 14.3054 4.42946C14.5792 4.45735 14.8498 4.49327 15.1106 4.53803C15.6815 4.65932 16.2383 4.82971 16.7725 5.04673C18.5212 5.75713 20.0268 6.96657 20.9999 8.59364C21.8031 9.93665 22.1408 11.3923 22.0618 12.8143C22.0289 13.2919 21.9097 13.9517 21.6665 14.6819ZM11.4066 4.48687L11.3649 20.4396C8.72711 20.0146 6.33903 18.5553 4.98574 16.2925C2.63715 12.3655 4.2662 7.42765 8.71436 5.28919C9.28216 5.01621 10.246 4.6796 11.4066 4.48687Z" stroke="url(#paint0_linear_0:495)"/>
<defs>
<linearGradient id="paint0_linear_0:495" x1="3.75599" y1="11.3047" x2="23.9452" y2="12.7184" gradientUnits="userSpaceOnUse">
<stop offset="0.288448" stop-color="#555248"/>
<stop offset="0.780176" stop-color="#1B1A17" stop-opacity="0"/>
</linearGradient>
</defs>
</svg>
